<svg width="51" height="47" viewBox="0 0 51 47" fill="none" xmlns="http://www.w3.org/2000/svg">
<path d="M22.6916 33.15L35.7 20.1417L33.1916 17.6333L22.6916 28.1333L17.2083 22.65L14.7 25.1583L22.6916 33.15ZM25.1416 46.2167C22.2638 46.2167 19.5416 45.6722 16.975 44.5833C14.4472 43.4944 12.2305 42.0167 10.325 40.15C8.45828 38.2444 6.96106 36.0278 5.83328 33.5C4.7444 30.9333 4.19995 28.1917 4.19995 25.275C4.19995 22.3972 4.7444 19.6944 5.83328 17.1667C6.96106 14.6 8.45828 12.3639 10.325 10.4583C12.2305 8.55278 14.4472 7.05555 16.975 5.96666C19.5416 4.87778 22.2638 4.33333 25.1416 4.33333C28.0194 4.33333 30.7222 4.87778 33.25 5.96666C35.8166 7.05555 38.0527 8.55278 39.9583 10.4583C41.8638 12.3639 43.3611 14.6 44.45 17.1667C45.5388 19.6944 46.0833 22.3972 46.0833 25.275C46.0833 28.1917 45.5388 30.9333 44.45 33.5C43.3611 36.0278 41.8638 38.2444 39.9583 40.15C38.0527 42.0167 35.8166 43.4944 33.25 44.5833C30.7222 45.6722 28.0194 46.2167 25.1416 46.2167ZM9.68329 0.424997L12.1333 2.875L2.56662 12.0917L0.116618 9.64166L9.68329 0.424997ZM40.6 0.424997L50.1666 9.64166L47.7166 12.0917L38.15 2.875L40.6 0.424997ZM25.1416 42.7167C30.0027 42.7167 34.125 41.025 37.5083 37.6417C40.8916 34.2583 42.5833 30.1361 42.5833 25.275C42.5833 20.4139 40.8916 16.2917 37.5083 12.9083C34.125 9.525 30.0027 7.83333 25.1416 7.83333C20.2805 7.83333 16.1583 9.525 12.775 12.9083C9.39162 16.2917 7.69995 20.4139 7.69995 25.275C7.69995 30.1361 9.39162 34.2583 12.775 37.6417C16.1583 41.025 20.2805 42.7167 25.1416 42.7167Z" fill="#82B1FF"/>
</svg>
