<svg width="67" height="66" viewBox="0 0 67 66" fill="none" xmlns="http://www.w3.org/2000/svg">
<g clip-path="url(#clip0_474_6276)">
<mask id="mask0_474_6276" style="mask-type:luminance" maskUnits="userSpaceOnUse" x="0" y="0" width="67" height="66">
<path d="M66.6001 0H0.600098V66H66.6001V0Z" fill="white"/>
</mask>
<g mask="url(#mask0_474_6276)">
<path d="M66.3184 33.7089C65.9863 33.186 65.4181 32.874 64.7986 32.874H56.626C55.1692 32.874 53.9836 34.0593 53.9836 35.5161C53.9836 35.5449 53.9815 35.5734 53.9779 35.6013V29.3706C53.9779 28.4753 53.2495 27.7469 52.3546 27.7469H45.2785V20.5086C45.2785 19.8191 44.7175 19.2581 44.0281 19.2581H27.1932C26.5037 19.2581 25.9425 19.8191 25.9425 20.5086V36.2214H22.9479V30.5055C23.6504 30.504 24.2215 29.9321 24.2215 29.2291V26.8633C24.2215 26.1594 23.6488 25.5866 22.9448 25.5866H20.0653V18.4686C20.0653 17.6714 19.4168 17.0229 18.6195 17.0229H14.4646V12.2667C14.4646 11.7262 14.0264 11.2881 13.4859 11.2881C12.9454 11.2881 12.5073 11.7262 12.5073 12.2667V17.023H8.35237C7.55521 17.023 6.90667 17.6715 6.90667 18.4687V25.5868H4.02691C3.32294 25.5868 2.75021 26.1595 2.75021 26.8635V29.2293C2.75021 29.9322 3.32126 30.5043 4.02379 30.5058V36.2217H2.27647C1.76858 36.2217 1.29382 36.4479 0.974132 36.8424C0.65483 37.236 0.531853 37.746 0.636654 38.2416C1.3401 41.571 3.0436 44.8179 5.56309 47.6316C5.69713 47.7813 5.78092 47.9616 5.81638 48.1509C5.82604 48.2025 5.83159 48.2541 5.83378 48.3057L5.83495 48.3228C5.83636 48.3714 5.83327 48.42 5.82823 48.468C5.82721 48.477 5.82733 48.4863 5.82604 48.4956C5.82013 48.54 5.80993 48.5838 5.79847 48.6273C5.79538 48.639 5.79394 48.6507 5.79046 48.6621C5.77435 48.7161 5.75437 48.7689 5.72974 48.8205L4.14937 52.1289C3.88072 52.6917 3.91876 53.3424 4.25131 53.8698C4.58389 54.3972 5.15458 54.7119 5.7781 54.7119H56.2312C56.9257 54.7119 57.5653 54.3057 57.8605 53.6772L66.4282 35.4393C66.6916 34.8789 66.6505 34.2318 66.3184 33.7089ZM45.2785 29.6837H52.0414V36.2217H45.2785V29.6837ZM36.5788 21.1948H43.3417V27.7469H36.5788V21.1948ZM36.5788 29.6837H43.3417V36.2217H36.5788V29.6837ZM27.8792 21.1948H34.6423V27.7469H27.8792V21.1948ZM27.8792 29.6837H34.6423V36.2217H27.8792V29.6837ZM8.84335 18.9597H18.1286V25.5868H8.84335V18.9597ZM4.68703 27.5235H22.2847V28.5691H11.3327C10.7978 28.5691 10.3643 29.0027 10.3643 29.5375C10.3643 30.0723 10.7978 30.5058 11.3327 30.5058H21.0112V36.2217H5.96062V30.5058H6.77905C7.31389 30.5058 7.74739 30.0723 7.74739 29.5375C7.74739 29.0027 7.31389 28.5691 6.77905 28.5691H4.68703V27.5235ZM58.8613 46.9926H49.2619C48.727 46.9926 48.2935 47.4261 48.2935 47.9607C48.2935 48.4956 48.727 48.9291 49.2619 48.9291H57.9514L56.1445 52.7754H5.98705L7.47733 49.6551C7.50814 49.5906 7.53598 49.5255 7.5619 49.4595C7.57003 49.4391 7.57699 49.4181 7.58473 49.3974C7.60147 49.3521 7.61773 49.3068 7.63216 49.2609C7.64029 49.2354 7.64749 49.2096 7.65496 49.1841C7.66669 49.1433 7.67767 49.1028 7.68757 49.0617C7.6948 49.032 7.70164 49.002 7.70794 48.9723C7.71091 48.9579 7.7149 48.9435 7.71775 48.9294H44.7082C45.2428 48.9294 45.6766 48.4959 45.6766 47.961C45.6766 47.4261 45.2428 46.9926 44.7082 46.9926H7.44976C7.33231 46.7604 7.18537 46.5402 7.00594 46.3398C4.76026 43.8321 3.27975 41.0811 2.60157 38.1582L53.0095 38.1726C53.0641 38.1726 53.2261 38.1669 53.278 38.1582C54.7351 38.1582 55.9204 36.9729 55.9204 35.5161C55.9204 35.127 56.2366 34.8105 56.626 34.8105H64.5838L58.8613 46.9926Z" fill="#82B1FF"/>
</g>
</g>
<defs>
<clipPath id="clip0_474_6276">
<rect width="66" height="66" fill="white" transform="translate(0.600098)"/>
</clipPath>
</defs>
</svg>
