<svg width="52" height="37" viewBox="0 0 52 37" fill="none" xmlns="http://www.w3.org/2000/svg">
<path d="M0.216667 36.6667V31.1833C0.216667 29.8222 0.566667 28.5972 1.26667 27.5083C1.96667 26.3806 2.93889 25.5444 4.18333 25C7.02222 23.7556 9.56945 22.8611 11.825 22.3167C14.1194 21.7722 16.4722 21.5 18.8833 21.5C21.2944 21.5 23.6278 21.7722 25.8833 22.3167C28.1389 22.8611 30.6861 23.7556 33.525 25C34.7694 25.5444 35.7417 26.3806 36.4417 27.5083C37.1806 28.5972 37.55 29.8222 37.55 31.1833V36.6667H0.216667ZM41.05 36.6667V31.1833C41.05 28.7333 40.4278 26.7306 39.1833 25.175C37.9389 23.5806 36.3056 22.2972 34.2833 21.325C36.9667 21.6361 39.4944 22.1028 41.8667 22.725C44.2389 23.3083 46.1639 23.9889 47.6417 24.7667C48.925 25.5056 49.9361 26.4194 50.675 27.5083C51.4139 28.5972 51.7833 29.8222 51.7833 31.1833V36.6667H41.05ZM18.8833 17.9417C16.3167 17.9417 14.2167 17.125 12.5833 15.4917C10.95 13.8583 10.1333 11.7583 10.1333 9.19166C10.1333 6.625 10.95 4.525 12.5833 2.89166C14.2167 1.25833 16.3167 0.441664 18.8833 0.441664C21.45 0.441664 23.55 1.25833 25.1833 2.89166C26.8167 4.525 27.6333 6.625 27.6333 9.19166C27.6333 11.7583 26.8167 13.8583 25.1833 15.4917C23.55 17.125 21.45 17.9417 18.8833 17.9417ZM39.8833 9.19166C39.8833 11.7583 39.0667 13.8583 37.4333 15.4917C35.8 17.125 33.7 17.9417 31.1333 17.9417C30.7056 17.9417 30.2194 17.9222 29.675 17.8833C29.1694 17.8056 28.7028 17.6889 28.275 17.5333C29.2083 16.5611 29.9083 15.375 30.375 13.975C30.8806 12.5361 31.1333 10.9417 31.1333 9.19166C31.1333 7.44166 30.8806 5.90555 30.375 4.58333C29.9083 3.22222 29.2083 1.97778 28.275 0.849998C28.7028 0.733331 29.1694 0.636109 29.675 0.558332C30.2194 0.480554 30.7056 0.441664 31.1333 0.441664C33.7 0.441664 35.8 1.25833 37.4333 2.89166C39.0667 4.525 39.8833 6.625 39.8833 9.19166ZM3.71667 33.1667H34.05V31.1833C34.05 30.5611 33.8556 29.9583 33.4667 29.375C33.1167 28.7917 32.6694 28.3833 32.125 28.15C29.325 26.9056 26.9722 26.0694 25.0667 25.6417C23.1611 25.2139 21.1 25 18.8833 25C16.6667 25 14.5861 25.2139 12.6417 25.6417C10.7361 26.0694 8.38333 26.9056 5.58333 28.15C5.03889 28.3833 4.59167 28.7917 4.24167 29.375C3.89167 29.9583 3.71667 30.5611 3.71667 31.1833V33.1667ZM18.8833 14.4417C20.4 14.4417 21.6444 13.9556 22.6167 12.9833C23.6278 11.9722 24.1333 10.7083 24.1333 9.19166C24.1333 7.675 23.6278 6.43055 22.6167 5.45833C21.6444 4.44722 20.4 3.94166 18.8833 3.94166C17.3667 3.94166 16.1028 4.44722 15.0917 5.45833C14.1194 6.43055 13.6333 7.675 13.6333 9.19166C13.6333 10.7083 14.1194 11.9722 15.0917 12.9833C16.1028 13.9556 17.3667 14.4417 18.8833 14.4417Z" fill="#82B1FF"/>
</svg>
