<svg width="46" height="39" viewBox="0 0 46 39" fill="none" xmlns="http://www.w3.org/2000/svg">
<path d="M32.9498 25L41.5498 17.6L45.7998 17.95L36.3498 26.05L39.1998 38.35L35.4998 36.1L32.9498 25ZM28.2998 10.55L25.4498 3.85L27.0498 -2.86102e-06L31.6498 10.85L28.2998 10.55ZM12.6998 31.75L20.5498 27.05L28.3998 31.8L26.2998 22.9L33.1998 16.9L24.0998 16.1L20.5498 7.7L16.9998 16.05L7.89981 16.85L14.7998 22.85L12.6998 31.75ZM8.19981 38L11.4498 23.95L0.549805 14.5L14.9498 13.25L20.5498 -2.86102e-06L26.1498 13.25L40.5498 14.5L29.6498 23.95L32.8998 38L20.5498 30.55L8.19981 38Z" fill="#F57F17"/>
</svg>
