<svg width="43" height="42" viewBox="0 0 43 42" fill="none" xmlns="http://www.w3.org/2000/svg">
<path d="M11.3001 32.3167C11.7667 32.3167 12.175 32.1417 12.5251 31.7917C12.8751 31.4417 13.0501 31.0333 13.0501 30.5667C13.0501 30.1 12.8751 29.6917 12.5251 29.3417C12.175 28.9917 11.7667 28.8167 11.3001 28.8167C10.8334 28.8167 10.425 28.9917 10.075 29.3417C9.72505 29.6917 9.55005 30.1 9.55005 30.5667C9.55005 31.0333 9.72505 31.4417 10.075 31.7917C10.425 32.1417 10.8334 32.3167 11.3001 32.3167ZM11.3001 22.75C11.7667 22.75 12.175 22.575 12.5251 22.225C12.8751 21.875 13.0501 21.4667 13.0501 21C13.0501 20.5333 12.8751 20.125 12.5251 19.775C12.175 19.425 11.7667 19.25 11.3001 19.25C10.8334 19.25 10.425 19.425 10.075 19.775C9.72505 20.125 9.55005 20.5333 9.55005 21C9.55005 21.4667 9.72505 21.875 10.075 22.225C10.425 22.575 10.8334 22.75 11.3001 22.75ZM11.3001 13.1833C11.7667 13.1833 12.175 13.0083 12.5251 12.6583C12.8751 12.3083 13.0501 11.9 13.0501 11.4333C13.0501 10.9667 12.8751 10.5583 12.5251 10.2083C12.175 9.85833 11.7667 9.68333 11.3001 9.68333C10.8334 9.68333 10.425 9.85833 10.075 10.2083C9.72505 10.5583 9.55005 10.9667 9.55005 11.4333C9.55005 11.9 9.72505 12.3083 10.075 12.6583C10.425 13.0083 10.8334 13.1833 11.3001 13.1833ZM19 32.3167H33.2334V28.8167H19V32.3167ZM19 22.75H33.2334V19.25H19V22.75ZM19 13.1833H33.2334V9.68333H19V13.1833ZM4.30005 42C3.36672 42 2.55005 41.65 1.85005 40.95C1.15005 40.25 0.800049 39.4333 0.800049 38.5V3.5C0.800049 2.56666 1.15005 1.75 1.85005 1.05C2.55005 0.349997 3.36672 -3.33786e-06 4.30005 -3.33786e-06H39.3001C40.2334 -3.33786e-06 41.0501 0.349997 41.7501 1.05C42.4501 1.75 42.8001 2.56666 42.8001 3.5V38.5C42.8001 39.4333 42.4501 40.25 41.7501 40.95C41.0501 41.65 40.2334 42 39.3001 42H4.30005ZM4.30005 38.5H39.3001V3.5H4.30005V38.5ZM4.30005 3.5V38.5V3.5Z" fill="#82B1FF"/>
</svg>
