<svg width="21" height="40" viewBox="0 0 21 40" fill="none" xmlns="http://www.w3.org/2000/svg">
<path d="M0.487062 -9.53674e-07H20.4871V16.65C20.4871 17.4167 20.2871 18.1167 19.8871 18.75C19.5204 19.3833 19.0037 19.9 18.3371 20.3L11.2871 24.4L12.5871 29.25H19.2871L13.8371 33.3L15.9371 40L10.4871 35.95L4.98706 40L7.08706 33.3L1.63706 29.25H8.38706L9.63706 24.4L2.63706 20.3C1.97039 19.9 1.43706 19.3833 1.03706 18.75C0.670395 18.1167 0.487062 17.4167 0.487062 16.65V-9.53674e-07ZM3.48706 3V16.65C3.48706 16.8833 3.55373 17.1 3.68706 17.3C3.85373 17.5 4.08706 17.6833 4.38706 17.85L9.18706 20.5V3H3.48706ZM17.4871 3H12.1871V20.5L16.5871 17.85C16.8871 17.6833 17.1037 17.5 17.2371 17.3C17.4037 17.1 17.4871 16.8833 17.4871 16.65V3Z" fill="#08558C"/>
</svg>
