<svg width="20" height="20" viewBox="0 0 20 20" fill="none" xmlns="http://www.w3.org/2000/svg">
<path d="M10 20C8.63333 20 7.34167 19.7417 6.125 19.225C4.90833 18.6917 3.84167 17.975 2.925 17.075C2.025 16.1583 1.30833 15.0917 0.775 13.875C0.258333 12.6583 5.96046e-08 11.3667 5.96046e-08 10C5.96046e-08 8.61667 0.258333 7.31667 0.775 6.1C1.30833 4.88333 2.025 3.825 2.925 2.925C3.84167 2.025 4.90833 1.31667 6.125 0.799999C7.34167 0.266666 8.63333 -4.76837e-07 10 -4.76837e-07C11.3833 -4.76837e-07 12.6833 0.266666 13.9 0.799999C15.1167 1.31667 16.175 2.025 17.075 2.925C17.975 3.825 18.6833 4.88333 19.2 6.1C19.7333 7.31667 20 8.61667 20 10C20 11.3667 19.7333 12.6583 19.2 13.875C18.6833 15.0917 17.975 16.1583 17.075 17.075C16.175 17.975 15.1167 18.6917 13.9 19.225C12.6833 19.7417 11.3833 20 10 20ZM10 18.5C12.3667 18.5 14.375 17.675 16.025 16.025C17.675 14.3583 18.5 12.35 18.5 10C18.5 7.63333 17.675 5.625 16.025 3.975C14.375 2.325 12.3667 1.5 10 1.5C7.65 1.5 5.64167 2.325 3.975 3.975C2.325 5.625 1.5 7.63333 1.5 10C1.5 12.35 2.325 14.3583 3.975 16.025C5.64167 17.675 7.65 18.5 10 18.5Z" fill="#FF5252"/>
</svg>
